<?xml version="1.0" encoding="UTF-8"?>
<svg xmlns="http://www.w3.org/2000/svg" style="display:none">
  <symbol id="lucide-activity" viewBox="0 0 24 24"><path d="M22 12h-2.48a2 2 0 0 0-1.93 1.46l-2.35 8.36a.25.25 0 0 1-.48 0L9.24 2.18a.25.25 0 0 0-.48 0l-2.35 8.36A2 2 0 0 1 4.49 12H2" /></symbol>
  <symbol id="lucide-alert-triangle" viewBox="0 0 24 24"><path d="m21.73 18-8-14a2 2 0 0 0-3.48 0l-8 14A2 2 0 0 0 4 21h16a2 2 0 0 0 1.73-3" />
  <path d="M12 9v4" />
  <path d="M12 17h.01" /></symbol>
  <symbol id="lucide-arrow-left" viewBox="0 0 24 24"><path d="m12 19-7-7 7-7" />
  <path d="M19 12H5" /></symbol>
  <symbol id="lucide-arrow-right" viewBox="0 0 24 24"><path d="M5 12h14" />
  <path d="m12 5 7 7-7 7" /></symbol>
  <symbol id="lucide-award" viewBox="0 0 24 24"><path d="m15.477 12.89 1.515 8.526a.5.5 0 0 1-.81.47l-3.58-2.687a1 1 0 0 0-1.197 0l-3.586 2.686a.5.5 0 0 1-.81-.469l1.514-8.526" />
  <circle cx="12" cy="8" r="6" /></symbol>
  <symbol id="lucide-bar-chart-3" viewBox="0 0 24 24"><path d="M3 3v16a2 2 0 0 0 2 2h16" />
  <path d="M18 17V9" />
  <path d="M13 17V5" />
  <path d="M8 17v-3" /></symbol>
  <symbol id="lucide-book-open" viewBox="0 0 24 24"><path d="M12 7v14" />
  <path d="M3 18a1 1 0 0 1-1-1V4a1 1 0 0 1 1-1h5a4 4 0 0 1 4 4 4 4 0 0 1 4-4h5a1 1 0 0 1 1 1v13a1 1 0 0 1-1 1h-6a3 3 0 0 0-3 3 3 3 0 0 0-3-3z" /></symbol>
  <symbol id="lucide-brain-circuit" viewBox="0 0 24 24"><path d="M12 5a3 3 0 1 0-5.997.125 4 4 0 0 0-2.526 5.77 4 4 0 0 0 .556 6.588A4 4 0 1 0 12 18Z" />
  <path d="M9 13a4.5 4.5 0 0 0 3-4" />
  <path d="M6.003 5.125A3 3 0 0 0 6.401 6.5" />
  <path d="M3.477 10.896a4 4 0 0 1 .585-.396" />
  <path d="M6 18a4 4 0 0 1-1.967-.516" />
  <path d="M12 13h4" />
  <path d="M12 18h6a2 2 0 0 1 2 2v1" />
  <path d="M12 8h8" />
  <path d="M16 8V5a2 2 0 0 1 2-2" />
  <circle cx="16" cy="13" r=".5" />
  <circle cx="18" cy="3" r=".5" />
  <circle cx="20" cy="21" r=".5" />
  <circle cx="20" cy="8" r=".5" /></symbol>
  <symbol id="lucide-briefcase" viewBox="0 0 24 24"><path d="M16 20V4a2 2 0 0 0-2-2h-4a2 2 0 0 0-2 2v16" />
  <rect width="20" height="14" x="2" y="6" rx="2" /></symbol>
  <symbol id="lucide-brush" viewBox="0 0 24 24"><path d="m11 10 3 3" />
  <path d="M6.5 21A3.5 3.5 0 1 0 3 17.5a2.62 2.62 0 0 1-.708 1.792A1 1 0 0 0 3 21z" />
  <path d="M9.969 17.031 21.378 5.624a1 1 0 0 0-3.002-3.002L6.967 14.031" /></symbol>
  <symbol id="lucide-building" viewBox="0 0 24 24"><path d="M12 10h.01" />
  <path d="M12 14h.01" />
  <path d="M12 6h.01" />
  <path d="M16 10h.01" />
  <path d="M16 14h.01" />
  <path d="M16 6h.01" />
  <path d="M8 10h.01" />
  <path d="M8 14h.01" />
  <path d="M8 6h.01" />
  <path d="M9 22v-3a1 1 0 0 1 1-1h4a1 1 0 0 1 1 1v3" />
  <rect x="4" y="2" width="16" height="20" rx="2" /></symbol>
  <symbol id="lucide-calendar-check" viewBox="0 0 24 24"><path d="M8 2v4" />
  <path d="M16 2v4" />
  <rect width="18" height="18" x="3" y="4" rx="2" />
  <path d="M3 10h18" />
  <path d="m9 16 2 2 4-4" /></symbol>
  <symbol id="lucide-calendar-check-2" viewBox="0 0 24 24"><path d="M8 2v4" />
  <path d="M16 2v4" />
  <path d="M21 14V6a2 2 0 0 0-2-2H5a2 2 0 0 0-2 2v14a2 2 0 0 0 2 2h8" />
  <path d="M3 10h18" />
  <path d="m16 20 2 2 4-4" /></symbol>
  <symbol id="lucide-calendar-days" viewBox="0 0 24 24"><path d="M8 2v4" />
  <path d="M16 2v4" />
  <rect width="18" height="18" x="3" y="4" rx="2" />
  <path d="M3 10h18" />
  <path d="M8 14h.01" />
  <path d="M12 14h.01" />
  <path d="M16 14h.01" />
  <path d="M8 18h.01" />
  <path d="M12 18h.01" />
  <path d="M16 18h.01" /></symbol>
  <symbol id="lucide-chart-column" viewBox="0 0 24 24"><path d="M3 3v16a2 2 0 0 0 2 2h16" />
  <path d="M18 17V9" />
  <path d="M13 17V5" />
  <path d="M8 17v-3" /></symbol>
  <symbol id="lucide-check" viewBox="0 0 24 24"><path d="M20 6 9 17l-5-5" /></symbol>
  <symbol id="lucide-check-circle-2" viewBox="0 0 24 24"><circle cx="12" cy="12" r="10" />
  <path d="m9 12 2 2 4-4" /></symbol>
  <symbol id="lucide-chevron-down" viewBox="0 0 24 24"><path d="m6 9 6 6 6-6" /></symbol>
  <symbol id="lucide-clock-3" viewBox="0 0 24 24"><circle cx="12" cy="12" r="10" />
  <path d="M12 6v6h4" /></symbol>
  <symbol id="lucide-cookie" viewBox="0 0 24 24"><path d="M12 2a10 10 0 1 0 10 10 4 4 0 0 1-5-5 4 4 0 0 1-5-5" />
  <path d="M8.5 8.5v.01" />
  <path d="M16 15.5v.01" />
  <path d="M12 12v.01" />
  <path d="M11 17v.01" />
  <path d="M7 14v.01" /></symbol>
  <symbol id="lucide-credit-card" viewBox="0 0 24 24"><rect width="20" height="14" x="2" y="5" rx="2" />
  <line x1="2" x2="22" y1="10" y2="10" /></symbol>
  <symbol id="lucide-download" viewBox="0 0 24 24"><path d="M12 15V3" />
  <path d="M21 15v4a2 2 0 0 1-2 2H5a2 2 0 0 1-2-2v-4" />
  <path d="m7 10 5 5 5-5" /></symbol>
  <symbol id="lucide-external-link" viewBox="0 0 24 24"><path d="M15 3h6v6" />
  <path d="M10 14 21 3" />
  <path d="M18 13v6a2 2 0 0 1-2 2H5a2 2 0 0 1-2-2V8a2 2 0 0 1 2-2h6" /></symbol>
  <symbol id="lucide-eye" viewBox="0 0 24 24"><path d="M2.062 12.348a1 1 0 0 1 0-.696 10.75 10.75 0 0 1 19.876 0 1 1 0 0 1 0 .696 10.75 10.75 0 0 1-19.876 0" />
  <circle cx="12" cy="12" r="3" /></symbol>
  <symbol id="lucide-facebook" viewBox="0 0 24 24"><path d="M18 2h-3a5 5 0 0 0-5 5v3H7v4h3v8h4v-8h3l1-4h-4V7a1 1 0 0 1 1-1h3z" /></symbol>
  <symbol id="lucide-file-chart-column" viewBox="0 0 24 24"><path d="M6 22a2 2 0 0 1-2-2V4a2 2 0 0 1 2-2h8a2.4 2.4 0 0 1 1.704.706l3.588 3.588A2.4 2.4 0 0 1 20 8v12a2 2 0 0 1-2 2z" />
  <path d="M14 2v5a1 1 0 0 0 1 1h5" />
  <path d="M8 18v-1" />
  <path d="M12 18v-6" />
  <path d="M16 18v-3" /></symbol>
  <symbol id="lucide-file-code-2" viewBox="0 0 24 24"><path d="M4 12.15V4a2 2 0 0 1 2-2h8a2.4 2.4 0 0 1 1.706.706l3.588 3.588A2.4 2.4 0 0 1 20 8v12a2 2 0 0 1-2 2h-3.35" />
  <path d="M14 2v5a1 1 0 0 0 1 1h5" />
  <path d="m5 16-3 3 3 3" />
  <path d="m9 22 3-3-3-3" /></symbol>
  <symbol id="lucide-file-text" viewBox="0 0 24 24"><path d="M6 22a2 2 0 0 1-2-2V4a2 2 0 0 1 2-2h8a2.4 2.4 0 0 1 1.704.706l3.588 3.588A2.4 2.4 0 0 1 20 8v12a2 2 0 0 1-2 2z" />
  <path d="M14 2v5a1 1 0 0 0 1 1h5" />
  <path d="M10 9H8" />
  <path d="M16 13H8" />
  <path d="M16 17H8" /></symbol>
  <symbol id="lucide-file-user" viewBox="0 0 24 24"><path d="M6 22a2 2 0 0 1-2-2V4a2 2 0 0 1 2-2h8a2.4 2.4 0 0 1 1.704.706l3.588 3.588A2.4 2.4 0 0 1 20 8v12a2 2 0 0 1-2 2z" />
  <path d="M14 2v5a1 1 0 0 0 1 1h5" />
  <path d="M16 22a4 4 0 0 0-8 0" />
  <circle cx="12" cy="15" r="3" /></symbol>
  <symbol id="lucide-file-warning" viewBox="0 0 24 24"><path d="M6 22a2 2 0 0 1-2-2V4a2 2 0 0 1 2-2h8a2.4 2.4 0 0 1 1.704.706l3.588 3.588A2.4 2.4 0 0 1 20 8v12a2 2 0 0 1-2 2z" />
  <path d="M12 9v4" />
  <path d="M12 17h.01" /></symbol>
  <symbol id="lucide-filter" viewBox="0 0 24 24"><path d="M10 20a1 1 0 0 0 .553.895l2 1A1 1 0 0 0 14 21v-7a2 2 0 0 1 .517-1.341L21.74 4.67A1 1 0 0 0 21 3H3a1 1 0 0 0-.742 1.67l7.225 7.989A2 2 0 0 1 10 14z" /></symbol>
  <symbol id="lucide-flag" viewBox="0 0 24 24"><path d="M4 22V4a1 1 0 0 1 .4-.8A6 6 0 0 1 8 2c3 0 5 2 7.333 2q2 0 3.067-.8A1 1 0 0 1 20 4v10a1 1 0 0 1-.4.8A6 6 0 0 1 16 16c-3 0-5-2-8-2a6 6 0 0 0-4 1.528" /></symbol>
  <symbol id="lucide-folder" viewBox="0 0 24 24"><path d="M20 20a2 2 0 0 0 2-2V8a2 2 0 0 0-2-2h-7.9a2 2 0 0 1-1.69-.9L9.6 3.9A2 2 0 0 0 7.93 3H4a2 2 0 0 0-2 2v13a2 2 0 0 0 2 2Z" /></symbol>
  <symbol id="lucide-globe" viewBox="0 0 24 24"><circle cx="12" cy="12" r="10" />
  <path d="M12 2a14.5 14.5 0 0 0 0 20 14.5 14.5 0 0 0 0-20" />
  <path d="M2 12h20" /></symbol>
  <symbol id="lucide-graduation-cap" viewBox="0 0 24 24"><path d="M21.42 10.922a1 1 0 0 0-.019-1.838L12.83 5.18a2 2 0 0 0-1.66 0L2.6 9.08a1 1 0 0 0 0 1.832l8.57 3.908a2 2 0 0 0 1.66 0z" />
  <path d="M22 10v6" />
  <path d="M6 12.5V16a6 3 0 0 0 12 0v-3.5" /></symbol>
  <symbol id="lucide-headset" viewBox="0 0 24 24"><path d="M3 11h3a2 2 0 0 1 2 2v3a2 2 0 0 1-2 2H5a2 2 0 0 1-2-2v-5Zm0 0a9 9 0 1 1 18 0m0 0v5a2 2 0 0 1-2 2h-1a2 2 0 0 1-2-2v-3a2 2 0 0 1 2-2h3Z" />
  <path d="M21 16v2a4 4 0 0 1-4 4h-5" /></symbol>
  <symbol id="lucide-heart" viewBox="0 0 24 24"><path d="M2 9.5a5.5 5.5 0 0 1 9.591-3.676.56.56 0 0 0 .818 0A5.49 5.49 0 0 1 22 9.5c0 2.29-1.5 4-3 5.5l-5.492 5.313a2 2 0 0 1-3 .019L5 15c-1.5-1.5-3-3.2-3-5.5" /></symbol>
  <symbol id="lucide-heart-handshake" viewBox="0 0 24 24"><path d="M19.414 14.414C21 12.828 22 11.5 22 9.5a5.5 5.5 0 0 0-9.591-3.676.6.6 0 0 1-.818.001A5.5 5.5 0 0 0 2 9.5c0 2.3 1.5 4 3 5.5l5.535 5.362a2 2 0 0 0 2.879.052 2.12 2.12 0 0 0-.004-3 2.124 2.124 0 1 0 3-3 2.124 2.124 0 0 0 3.004 0 2 2 0 0 0 0-2.828l-1.881-1.882a2.41 2.41 0 0 0-3.409 0l-1.71 1.71a2 2 0 0 1-2.828 0 2 2 0 0 1 0-2.828l2.823-2.762" /></symbol>
  <symbol id="lucide-home" viewBox="0 0 24 24"><path d="M15 21v-8a1 1 0 0 0-1-1h-4a1 1 0 0 0-1 1v8" />
  <path d="M3 10a2 2 0 0 1 .709-1.528l7-6a2 2 0 0 1 2.582 0l7 6A2 2 0 0 1 21 10v9a2 2 0 0 1-2 2H5a2 2 0 0 1-2-2z" /></symbol>
  <symbol id="lucide-id-card" viewBox="0 0 24 24"><path d="M16 10h2" />
  <path d="M16 14h2" />
  <path d="M6.17 15a3 3 0 0 1 5.66 0" />
  <circle cx="9" cy="11" r="2" />
  <rect x="2" y="5" width="20" height="14" rx="2" /></symbol>
  <symbol id="lucide-inbox" viewBox="0 0 24 24"><polyline points="22 12 16 12 14 15 10 15 8 12 2 12" />
  <path d="M5.45 5.11 2 12v6a2 2 0 0 0 2 2h16a2 2 0 0 0 2-2v-6l-3.45-6.89A2 2 0 0 0 16.76 4H7.24a2 2 0 0 0-1.79 1.11z" /></symbol>
  <symbol id="lucide-info" viewBox="0 0 24 24"><circle cx="12" cy="12" r="10" />
  <path d="M12 16v-4" />
  <path d="M12 8h.01" /></symbol>
  <symbol id="lucide-instagram" viewBox="0 0 24 24"><rect width="20" height="20" x="2" y="2" rx="5" ry="5" />
  <path d="M16 11.37A4 4 0 1 1 12.63 8 4 4 0 0 1 16 11.37z" />
  <line x1="17.5" x2="17.51" y1="6.5" y2="6.5" /></symbol>
  <symbol id="lucide-key-round" viewBox="0 0 24 24"><path d="M2.586 17.414A2 2 0 0 0 2 18.828V21a1 1 0 0 0 1 1h3a1 1 0 0 0 1-1v-1a1 1 0 0 1 1-1h1a1 1 0 0 0 1-1v-1a1 1 0 0 1 1-1h.172a2 2 0 0 0 1.414-.586l.814-.814a6.5 6.5 0 1 0-4-4z" />
  <circle cx="16.5" cy="7.5" r=".5" fill="currentColor" /></symbol>
  <symbol id="lucide-languages" viewBox="0 0 24 24"><path d="m5 8 6 6" />
  <path d="m4 14 6-6 2-3" />
  <path d="M2 5h12" />
  <path d="M7 2h1" />
  <path d="m22 22-5-10-5 10" />
  <path d="M14 18h6" /></symbol>
  <symbol id="lucide-layout-dashboard" viewBox="0 0 24 24"><rect width="7" height="9" x="3" y="3" rx="1" />
  <rect width="7" height="5" x="14" y="3" rx="1" />
  <rect width="7" height="9" x="14" y="12" rx="1" />
  <rect width="7" height="5" x="3" y="16" rx="1" /></symbol>
  <symbol id="lucide-layout-grid" viewBox="0 0 24 24"><rect width="7" height="7" x="3" y="3" rx="1" />
  <rect width="7" height="7" x="14" y="3" rx="1" />
  <rect width="7" height="7" x="14" y="14" rx="1" />
  <rect width="7" height="7" x="3" y="14" rx="1" /></symbol>
  <symbol id="lucide-lightbulb" viewBox="0 0 24 24"><path d="M15 14c.2-1 .7-1.7 1.5-2.5 1-.9 1.5-2.2 1.5-3.5A6 6 0 0 0 6 8c0 1 .2 2.2 1.5 3.5.7.7 1.3 1.5 1.5 2.5" />
  <path d="M9 18h6" />
  <path d="M10 22h4" /></symbol>
  <symbol id="lucide-line-chart" viewBox="0 0 24 24"><path d="M3 3v16a2 2 0 0 0 2 2h16" />
  <path d="m19 9-5 5-4-4-3 3" /></symbol>
  <symbol id="lucide-list" viewBox="0 0 24 24"><path d="M3 5h.01" />
  <path d="M3 12h.01" />
  <path d="M3 19h.01" />
  <path d="M8 5h13" />
  <path d="M8 12h13" />
  <path d="M8 19h13" /></symbol>
  <symbol id="lucide-log-out" viewBox="0 0 24 24"><path d="m16 17 5-5-5-5" />
  <path d="M21 12H9" />
  <path d="M9 21H5a2 2 0 0 1-2-2V5a2 2 0 0 1 2-2h4" /></symbol>
  <symbol id="lucide-mail" viewBox="0 0 24 24"><path d="m22 7-8.991 5.727a2 2 0 0 1-2.009 0L2 7" />
  <rect x="2" y="4" width="20" height="16" rx="2" /></symbol>
  <symbol id="lucide-mail-search" viewBox="0 0 24 24"><path d="M22 12.5V6a2 2 0 0 0-2-2H4a2 2 0 0 0-2 2v12c0 1.1.9 2 2 2h7.5" />
  <path d="m22 7-8.97 5.7a1.94 1.94 0 0 1-2.06 0L2 7" />
  <path d="M18 21a3 3 0 1 0 0-6 3 3 0 0 0 0 6Z" />
  <circle cx="18" cy="18" r="3" />
  <path d="m22 22-1.5-1.5" /></symbol>
  <symbol id="lucide-mailbox" viewBox="0 0 24 24"><path d="M22 17a2 2 0 0 1-2 2H4a2 2 0 0 1-2-2V9.5C2 7 4 5 6.5 5H18c2.2 0 4 1.8 4 4v8Z" />
  <polyline points="15,9 18,9 18,11" />
  <path d="M6.5 5C9 5 11 7 11 9.5V17a2 2 0 0 1-2 2" />
  <line x1="6" x2="7" y1="10" y2="10" /></symbol>
  <symbol id="lucide-map-pin" viewBox="0 0 24 24"><path d="M20 10c0 4.993-5.539 10.193-7.399 11.799a1 1 0 0 1-1.202 0C9.539 20.193 4 14.993 4 10a8 8 0 0 1 16 0" />
  <circle cx="12" cy="10" r="3" /></symbol>
  <symbol id="lucide-megaphone" viewBox="0 0 24 24"><path d="M11 6a13 13 0 0 0 8.4-2.8A1 1 0 0 1 21 4v12a1 1 0 0 1-1.6.8A13 13 0 0 0 11 14H5a2 2 0 0 1-2-2V8a2 2 0 0 1 2-2z" />
  <path d="M6 14a12 12 0 0 0 2.4 7.2 2 2 0 0 0 3.2-2.4A8 8 0 0 1 10 14" />
  <path d="M8 6v8" /></symbol>
  <symbol id="lucide-menu" viewBox="0 0 24 24"><path d="M4 5h16" />
  <path d="M4 12h16" />
  <path d="M4 19h16" /></symbol>
  <symbol id="lucide-message-circle" viewBox="0 0 24 24"><path d="M2.992 16.342a2 2 0 0 1 .094 1.167l-1.065 3.29a1 1 0 0 0 1.236 1.168l3.413-.998a2 2 0 0 1 1.099.092 10 10 0 1 0-4.777-4.719" /></symbol>
  <symbol id="lucide-message-square-text" viewBox="0 0 24 24"><path d="M22 17a2 2 0 0 1-2 2H6.828a2 2 0 0 0-1.414.586l-2.202 2.202A.71.71 0 0 1 2 21.286V5a2 2 0 0 1 2-2h16a2 2 0 0 1 2 2z" />
  <path d="M7 11h10" />
  <path d="M7 15h6" />
  <path d="M7 7h8" /></symbol>
  <symbol id="lucide-monitor" viewBox="0 0 24 24"><rect width="20" height="14" x="2" y="3" rx="2" />
  <line x1="8" x2="16" y1="21" y2="21" />
  <line x1="12" x2="12" y1="17" y2="21" /></symbol>
  <symbol id="lucide-mouse-pointer-click" viewBox="0 0 24 24"><path d="M14 4.1 12 6" />
  <path d="m5.1 8-2.9-.8" />
  <path d="m6 12-1.9 2" />
  <path d="M7.2 2.2 8 5.1" />
  <path d="M9.037 9.69a.498.498 0 0 1 .653-.653l11 4.5a.5.5 0 0 1-.074.949l-4.349 1.041a1 1 0 0 0-.74.739l-1.04 4.35a.5.5 0 0 1-.95.074z" /></symbol>
  <symbol id="lucide-palette" viewBox="0 0 24 24"><path d="M12 22a1 1 0 0 1 0-20 10 9 0 0 1 10 9 5 5 0 0 1-5 5h-2.25a1.75 1.75 0 0 0-1.4 2.8l.3.4a1.75 1.75 0 0 1-1.4 2.8z" />
  <circle cx="13.5" cy="6.5" r=".5" fill="currentColor" />
  <circle cx="17.5" cy="10.5" r=".5" fill="currentColor" />
  <circle cx="6.5" cy="12.5" r=".5" fill="currentColor" />
  <circle cx="8.5" cy="7.5" r=".5" fill="currentColor" /></symbol>
  <symbol id="lucide-phone" viewBox="0 0 24 24"><path d="M13.832 16.568a1 1 0 0 0 1.213-.303l.355-.465A2 2 0 0 1 17 15h3a2 2 0 0 1 2 2v3a2 2 0 0 1-2 2A18 18 0 0 1 2 4a2 2 0 0 1 2-2h3a2 2 0 0 1 2 2v3a2 2 0 0 1-.8 1.6l-.468.351a1 1 0 0 0-.292 1.233 14 14 0 0 0 6.392 6.384" /></symbol>
  <symbol id="lucide-plug-zap" viewBox="0 0 24 24"><path d="M6.3 20.3a2.4 2.4 0 0 0 3.4 0L12 18l-6-6-2.3 2.3a2.4 2.4 0 0 0 0 3.4Z" />
  <path d="m2 22 3-3" />
  <path d="M7.5 13.5 10 11" />
  <path d="M10.5 16.5 13 14" />
  <path d="m18 3-4 4h6l-4 4" /></symbol>
  <symbol id="lucide-printer" viewBox="0 0 24 24"><path d="M6 18H4a2 2 0 0 1-2-2v-5a2 2 0 0 1 2-2h16a2 2 0 0 1 2 2v5a2 2 0 0 1-2 2h-2" />
  <path d="M6 9V3a1 1 0 0 1 1-1h10a1 1 0 0 1 1 1v6" />
  <rect x="6" y="14" width="12" height="8" rx="1" /></symbol>
  <symbol id="lucide-radar" viewBox="0 0 24 24"><path d="M19.07 4.93A10 10 0 0 0 6.99 3.34" />
  <path d="M4 6h.01" />
  <path d="M2.29 9.62A10 10 0 1 0 21.31 8.35" />
  <path d="M16.24 7.76A6 6 0 1 0 8.23 16.67" />
  <path d="M12 18h.01" />
  <path d="M17.99 11.66A6 6 0 0 1 15.77 16.67" />
  <circle cx="12" cy="12" r="2" />
  <path d="m13.41 10.59 5.66-5.66" /></symbol>
  <symbol id="lucide-refresh-cw" viewBox="0 0 24 24"><path d="M3 12a9 9 0 0 1 9-9 9.75 9.75 0 0 1 6.74 2.74L21 8" />
  <path d="M21 3v5h-5" />
  <path d="M21 12a9 9 0 0 1-9 9 9.75 9.75 0 0 1-6.74-2.74L3 16" />
  <path d="M8 16H3v5" /></symbol>
  <symbol id="lucide-school" viewBox="0 0 24 24"><path d="M14 21v-3a2 2 0 0 0-4 0v3" />
  <path d="M18 5v16" />
  <path d="m4 6 7.106-3.79a2 2 0 0 1 1.788 0L20 6" />
  <path d="m6 11-3.52 2.147a1 1 0 0 0-.48.854V19a2 2 0 0 0 2 2h16a2 2 0 0 0 2-2v-5a1 1 0 0 0-.48-.853L18 11" />
  <path d="M6 5v16" />
  <circle cx="12" cy="9" r="2" /></symbol>
  <symbol id="lucide-send" viewBox="0 0 24 24"><path d="M14.536 21.686a.5.5 0 0 0 .937-.024l6.5-19a.496.496 0 0 0-.635-.635l-19 6.5a.5.5 0 0 0-.024.937l7.93 3.18a2 2 0 0 1 1.112 1.11z" />
  <path d="m21.854 2.147-10.94 10.939" /></symbol>
  <symbol id="lucide-shield-alert" viewBox="0 0 24 24"><path d="M20 13c0 5-3.5 7.5-7.66 8.95a1 1 0 0 1-.67-.01C7.5 20.5 4 18 4 13V6a1 1 0 0 1 1-1c2 0 4.5-1.2 6.24-2.72a1.17 1.17 0 0 1 1.52 0C14.51 3.81 17 5 19 5a1 1 0 0 1 1 1z" />
  <path d="M12 8v4" />
  <path d="M12 16h.01" /></symbol>
  <symbol id="lucide-shield-check" viewBox="0 0 24 24"><path d="M20 13c0 5-3.5 7.5-7.66 8.95a1 1 0 0 1-.67-.01C7.5 20.5 4 18 4 13V6a1 1 0 0 1 1-1c2 0 4.5-1.2 6.24-2.72a1.17 1.17 0 0 1 1.52 0C14.51 3.81 17 5 19 5a1 1 0 0 1 1 1z" />
  <path d="m9 12 2 2 4-4" /></symbol>
  <symbol id="lucide-smartphone" viewBox="0 0 24 24"><rect width="14" height="20" x="5" y="2" rx="2" ry="2" />
  <path d="M12 18h.01" /></symbol>
  <symbol id="lucide-sparkles" viewBox="0 0 24 24"><path d="M11.017 2.814a1 1 0 0 1 1.966 0l1.051 5.558a2 2 0 0 0 1.594 1.594l5.558 1.051a1 1 0 0 1 0 1.966l-5.558 1.051a2 2 0 0 0-1.594 1.594l-1.051 5.558a1 1 0 0 1-1.966 0l-1.051-5.558a2 2 0 0 0-1.594-1.594l-5.558-1.051a1 1 0 0 1 0-1.966l5.558-1.051a2 2 0 0 0 1.594-1.594z" />
  <path d="M20 2v4" />
  <path d="M22 4h-4" />
  <circle cx="4" cy="20" r="2" /></symbol>
  <symbol id="lucide-sprout" viewBox="0 0 24 24"><path d="M14 9.536V7a4 4 0 0 1 4-4h1.5a.5.5 0 0 1 .5.5V5a4 4 0 0 1-4 4 4 4 0 0 0-4 4c0 2 1 3 1 5a5 5 0 0 1-1 3" />
  <path d="M4 9a5 5 0 0 1 8 4 5 5 0 0 1-8-4" />
  <path d="M5 21h14" /></symbol>
  <symbol id="lucide-star" viewBox="0 0 24 24"><path d="M11.525 2.295a.53.53 0 0 1 .95 0l2.31 4.679a2.123 2.123 0 0 0 1.595 1.16l5.166.756a.53.53 0 0 1 .294.904l-3.736 3.638a2.123 2.123 0 0 0-.611 1.878l.882 5.14a.53.53 0 0 1-.771.56l-4.618-2.428a2.122 2.122 0 0 0-1.973 0L6.396 21.01a.53.53 0 0 1-.77-.56l.881-5.139a2.122 2.122 0 0 0-.611-1.879L2.16 9.795a.53.53 0 0 1 .294-.906l5.165-.755a2.122 2.122 0 0 0 1.597-1.16z" /></symbol>
  <symbol id="lucide-ticket" viewBox="0 0 24 24"><path d="M2 9a3 3 0 0 1 0 6v2a2 2 0 0 0 2 2h16a2 2 0 0 0 2-2v-2a3 3 0 0 1 0-6V7a2 2 0 0 0-2-2H4a2 2 0 0 0-2 2Z" />
  <path d="M13 5v2" />
  <path d="M13 17v2" />
  <path d="M13 11v2" /></symbol>
  <symbol id="lucide-trash-2" viewBox="0 0 24 24"><path d="M10 11v6" />
  <path d="M14 11v6" />
  <path d="M19 6v14a2 2 0 0 1-2 2H7a2 2 0 0 1-2-2V6" />
  <path d="M3 6h18" />
  <path d="M8 6V4a2 2 0 0 1 2-2h4a2 2 0 0 1 2 2v2" /></symbol>
  <symbol id="lucide-triangle-alert" viewBox="0 0 24 24"><path d="m21.73 18-8-14a2 2 0 0 0-3.48 0l-8 14A2 2 0 0 0 4 21h16a2 2 0 0 0 1.73-3" />
  <path d="M12 9v4" />
  <path d="M12 17h.01" /></symbol>
  <symbol id="lucide-type" viewBox="0 0 24 24"><path d="M12 4v16" />
  <path d="M4 7V5a1 1 0 0 1 1-1h14a1 1 0 0 1 1 1v2" />
  <path d="M9 20h6" /></symbol>
  <symbol id="lucide-user" viewBox="0 0 24 24"><path d="M19 21v-2a4 4 0 0 0-4-4H9a4 4 0 0 0-4 4v2" />
  <circle cx="12" cy="7" r="4" /></symbol>
  <symbol id="lucide-user-round-search" viewBox="0 0 24 24"><circle cx="10" cy="8" r="5" />
  <path d="M2 21a8 8 0 0 1 10.434-7.62" />
  <circle cx="18" cy="18" r="3" />
  <path d="m22 22-1.9-1.9" /></symbol>
  <symbol id="lucide-users" viewBox="0 0 24 24"><path d="M16 21v-2a4 4 0 0 0-4-4H6a4 4 0 0 0-4 4v2" />
  <path d="M16 3.128a4 4 0 0 1 0 7.744" />
  <path d="M22 21v-2a4 4 0 0 0-3-3.87" />
  <circle cx="9" cy="7" r="4" /></symbol>
  <symbol id="lucide-volleyball" viewBox="0 0 24 24"><path d="M11.1 7.1a16.55 16.55 0 0 1 10.9 4" />
  <path d="M12 12a12.6 12.6 0 0 1-8.7 5" />
  <path d="M16.8 13.6a16.55 16.55 0 0 1-9 7.5" />
  <path d="M20.7 17a12.8 12.8 0 0 0-8.7-5 13.3 13.3 0 0 1 0-10" />
  <path d="M6.3 3.8a16.55 16.55 0 0 0 1.9 11.5" />
  <circle cx="12" cy="12" r="10" /></symbol>
  <symbol id="lucide-x" viewBox="0 0 24 24"><path d="M18 6 6 18" />
  <path d="m6 6 12 12" /></symbol>
  <symbol id="lucide-x-circle" viewBox="0 0 24 24"><circle cx="12" cy="12" r="10" />
  <path d="m15 9-6 6" />
  <path d="m9 9 6 6" /></symbol>
  <symbol id="lucide-youtube" viewBox="0 0 24 24"><path d="M2.5 17a24.12 24.12 0 0 1 0-10 2 2 0 0 1 1.4-1.4 49.56 49.56 0 0 1 16.2 0A2 2 0 0 1 21.5 7a24.12 24.12 0 0 1 0 10 2 2 0 0 1-1.4 1.4 49.55 49.55 0 0 1-16.2 0A2 2 0 0 1 2.5 17" />
  <path d="m10 15 5-3-5-3z" /></symbol>
</svg>
